HIERARCHY
ROOT Hips
{
	OFFSET 0.00000 0.00000 0.00000
	CHANNELS 6 Xposition Yposition Zposition Zrotation Yrotation Xrotation 
	JOINT LHipJoint
	{
		OFFSET 0 0 0
		CHANNELS 3 Zrotation Yrotation Xrotation
		JOINT LeftUpLeg
		{
			OFFSET 1.80322 -1.53100 0.99595
			CHANNELS 3 Zrotation Yrotation Xrotation
			JOINT LeftLeg
			{
				OFFSET 2.25177 -6.18669 0.00000
				CHANNELS 3 Zrotation Yrotation Xrotation
				JOINT LeftFoot
				{
					OFFSET 2.26601 -6.22582 0.00000
					CHANNELS 3 Zrotation Yrotation Xrotation
					JOINT LeftToeBase
					{
						OFFSET 0.23701 -0.65119 2.15848
						CHANNELS 3 Zrotation Yrotation Xrotation
						End Site
						{
							OFFSET 0.00000 -0.00000 1.12949
						}
					}
				}
			}
		}
	}
	JOINT RHipJoint
	{
		OFFSET 0 0 0
		CHANNELS 3 Zrotation Yrotation Xrotation
		JOINT RightUpLeg
		{
			OFFSET -1.93977 -1.53100 0.99595
			CHANNELS 3 Zrotation Yrotation Xrotation
			JOINT RightLeg
			{
				OFFSET -2.28036 -6.26523 0.00000
				CHANNELS 3 Zrotation Yrotation Xrotation
				JOINT RightFoot
				{
					OFFSET -2.25490 -6.19528 0.00000
					CHANNELS 3 Zrotation Yrotation Xrotation
					JOINT RightToeBase
					{
						OFFSET -0.28375 -0.77960 2.23137
						CHANNELS 3 Zrotation Yrotation Xrotation
						End Site
						{
							OFFSET -0.00000 -0.00000 1.17899
						}
					}
				}
			}
		}
	}
	JOINT LowerBack
	{
		OFFSET 0 0 0
		CHANNELS 3 Zrotation Yrotation Xrotation
		JOINT Spine
		{
			OFFSET -0.00088 2.12090 -0.02806
			CHANNELS 3 Zrotation Yrotation Xrotation
			JOINT Spine1
			{
				OFFSET -0.00286 2.09666 0.12974
				CHANNELS 3 Zrotation Yrotation Xrotation
				JOINT Neck
				{
					OFFSET 0 0 0
					CHANNELS 3 Zrotation Yrotation Xrotation
					JOINT Neck1
					{
						OFFSET 0.07328 1.83526 0.07290
						CHANNELS 3 Zrotation Yrotation Xrotation
						JOINT Head
						{
							OFFSET -0.06683 1.74974 -0.49542
							CHANNELS 3 Zrotation Yrotation Xrotation
							End Site
							{
								OFFSET -0.03398 1.85163 -0.17573
							}
						}
					}
				}
				JOINT LeftShoulder
				{
					OFFSET 0 0 0
					CHANNELS 3 Zrotation Yrotation Xrotation
					JOINT LeftArm
					{
						OFFSET 3.02113 1.18018 0.40602
						CHANNELS 3 Zrotation Yrotation Xrotation
						JOINT LeftForeArm
						{
							OFFSET 4.58538 -0.00000 -0.00000
							CHANNELS 3 Zrotation Yrotation Xrotation
							JOINT LeftHand
							{
								OFFSET 2.68935 -0.00000 -0.00000
								CHANNELS 3 Zrotation Yrotation Xrotation
								JOINT LeftFingerBase
								{
									OFFSET 0 0 0
									CHANNELS 3 Zrotation Yrotation Xrotation
									JOINT LeftHandIndex1
									{
										OFFSET 0.58506 -0.00000 -0.00000
										CHANNELS 3 Zrotation Yrotation Xrotation
										End Site
										{
											OFFSET 0.47169 -0.00000 -0.00000
										}
									}
								}
								JOINT LThumb
								{
									OFFSET 0 0 0
									CHANNELS 3 Zrotation Yrotation Xrotation
									End Site
									{
										OFFSET 0.47889 -0.00000 0.47889
									}
								}
							}
						}
					}
				}
				JOINT RightShoulder
				{
					OFFSET 0 0 0
					CHANNELS 3 Zrotation Yrotation Xrotation
					JOINT RightArm
					{
						OFFSET -2.95074 1.18843 0.31430
						CHANNELS 3 Zrotation Yrotation Xrotation
						JOINT RightForeArm
						{
							OFFSET -4.47450 -0.00000 -0.00000
							CHANNELS 3 Zrotation Yrotation Xrotation
							JOINT RightHand
							{
								OFFSET -2.93896 -0.00000 -0.00000
								CHANNELS 3 Zrotation Yrotation Xrotation
								JOINT RightFingerBase
								{
									OFFSET 0 0 0
									CHANNELS 3 Zrotation Yrotation Xrotation
									JOINT RightHandIndex1
									{
										OFFSET -0.40509 -0.00000 -0.00000
										CHANNELS 3 Zrotation Yrotation Xrotation
										End Site
										{
											OFFSET -0.32660 -0.00000 -0.00000
										}
									}
								}
								JOINT RThumb
								{
									OFFSET 0 0 0
									CHANNELS 3 Zrotation Yrotation Xrotation
									End Site
									{
										OFFSET -0.33158 -0.00000 0.33158
									}
								}
							}
						}
					}
				}
			}
		}
	}
}
MOTION
Frames: 16
Frame Time: .0083333
1.2736 15.5918 5.7132 0 0 0 0 0 0 -21 0 0 0 0 0 0 0 0 0 0 0 0 0 0 21 0 0 0 0 0 0 0 0 0 0 0 0 0 0 0 0 0 0 0 0 0 0 -16 0 0 21 0 0 11 0 0 0 -8 0 0 0 0 0 0 0 0 0 0 0 0 0 0 0 0 0 0 0 0 8 0 0 0 0 0 0 0 0 0 0 0 0 0 0 0 0 0
1.2736 15.5918 5.7132 4.4103 -14.3998 5.2304 0.0000 0.0000 0.0000 -25.9495 -10.4668 1.2040 0.6790 5.2687 14.6764 -0.0216 17.7716 -24.9846 0.0510 1.4577 4.0090 0.0000 0.0000 0.0000 7.8571 16.4022 -11.5611 -2.9956 -10.6878 31.2342 -0.5993 -13.0937 -24.6048 -0.0422 1.3254 -3.6447 -4.7146 -1.6705 -4.7204 -0.7285 -2.2451 -7.4888 1.8698 -0.9170 -4.9909 -2.6900 -7.3398 -9.0842 -0.6774 -10.0854 28.9447 -1.0131 -5.0767 10.9169 0.0000 0.0000 0.0000 -88.2053 20.0546 -7.2808 13.7716 -22.4072 -2.7404 -0.0000 -0.0000 23.0906 3.8276 14.4125 0.9540 -7.1250 0.0000 -0.0000 -21.3913 43.3352 0.9242 0.0000 0.0000 0.0000 82.1965 -9.1115 23.9104 -15.5362 24.8878 -3.4484 0.0000 0.0000 8.6685 -8.6599 -6.9775 1.0600 7.1250 -0.0000 -0.0000 15.2256 -36.6500 3.2190
1.2593 15.5905 5.7237 4.3885 -14.4236 5.2239 0.0000 0.0000 0.0000 -25.9178 -10.5280 1.3488 0.6747 5.2523 14.6295 -0.0531 17.9453 -24.9536 0.0415 1.3150 3.6158 0.0000 0.0000 0.0000 7.9315 16.2976 -11.5477 -3.0001 -10.6952 31.2588 -0.6199 -12.9534 -24.6309 -0.0413 1.3116 -3.6067 -4.7502 -1.7275 -4.7905 -0.7179 -2.3182 -7.5304 1.8984 -0.9511 -4.9895 -2.7510 -7.3875 -9.1211 -0.5811 -10.1773 29.0302 -0.9858 -5.1134 10.9679 -0.0000 -0.0000 0.0000 -88.2646 20.0714 -6.9782 13.8825 -22.5664 -2.7828 -0.0000 -0.0000 22.8205 3.8506 14.4069 0.9594 -7.1250 0.0000 -0.0000 -21.3695 43.3323 0.9247 -0.0000 -0.0000 0.0000 82.0903 -9.1783 23.2782 -15.2070 24.4337 -3.3111 0.0000 0.0000 9.1956 -8.7164 -7.0990 1.0855 7.1250 -0.0000 -0.0000 15.2052 -36.7720 3.1676
1.2452 15.5895 5.7332 4.3974 -14.4400 5.2227 0.0000 0.0000 0.0000 -25.9145 -10.6223 1.4371 0.6771 5.2615 14.6561 -0.0274 17.9797 -25.2272 0.0522 1.4739 4.0539 0.0000 0.0000 0.0000 7.9707 16.2035 -11.5294 -2.9970 -10.6902 31.2419 -0.6299 -12.8642 -24.6229 -0.0413 1.3120 -3.6076 -4.8253 -1.7904 -4.8766 -0.6994 -2.3969 -7.5625 1.9563 -0.9863 -4.9672 -3.0097 -7.4930 -9.0540 -0.3738 -10.3419 29.0057 -0.8885 -5.1933 10.9777 0.0000 -0.0000 0.0000 -88.3582 20.0355 -6.7414 13.9924 -22.7238 -2.8252 -0.0000 -0.0000 22.6088 3.9162 14.3387 0.9713 -7.1250 0.0000 -0.0000 -21.2887 43.2758 0.9521 0.0000 -0.0000 0.0000 81.9460 -9.2263 22.6621 -14.8771 23.9747 -3.1758 0.0000 0.0000 9.7041 -8.7749 -7.0632 1.0874 7.1250 -0.0000 -0.0000 15.1495 -36.7406 3.1673
1.2298 15.5900 5.7400 4.2765 -14.4686 5.2579 0.0000 0.0000 0.0000 -25.7560 -10.6834 1.5005 0.6785 5.2669 14.6714 -0.0440 18.0998 -25.2532 0.0462 1.3870 3.8144 0.0000 0.0000 0.0000 8.1783 16.2677 -11.4652 -2.9935 -10.6846 31.2234 -0.6275 -12.9161 -24.6562 -0.0429 1.3369 -3.6764 -4.7777 -1.8097 -4.9238 -0.6682 -2.4210 -7.5978 1.9609 -0.9994 -4.9767 -3.1385 -7.5832 -9.0495 -0.2147 -10.4957 29.0058 -0.8313 -5.2588 10.9982 -0.0000 -0.0000 0.0000 -88.3981 19.9716 -6.2701 14.1489 -22.9471 -2.8859 -0.0000 -0.0000 22.1920 3.9721 14.4218 0.9908 -7.1250 0.0000 -0.0000 -21.2702 43.3592 0.9051 -0.0000 -0.0000 0.0000 81.8661 -9.2857 21.9200 -14.5408 23.5025 -3.0404 0.0000 0.0000 10.2820 -8.8940 -7.1501 1.1159 7.1250 -0.0000 -0.0000 15.0701 -36.8328 3.1147
1.2149 15.5898 5.7479 4.2096 -14.4891 5.2758 0.0000 0.0000 0.0000 -25.6633 -10.7623 1.5790 0.6805 5.2745 14.6933 -0.0456 18.1919 -25.3697 0.0460 1.3844 3.8073 0.0000 0.0000 0.0000 8.3175 16.2680 -11.4123 -2.9897 -10.6784 31.2027 -0.6314 -12.9070 -24.6793 -0.0429 1.3374 -3.6776 -4.7732 -1.8416 -4.9874 -0.6512 -2.4606 -7.6273 1.9739 -1.0189 -4.9690 -3.2866 -7.6732 -9.0419 -0.0470 -10.6486 29.0111 -0.7681 -5.3249 11.0224 0.0000 -0.0000 0.0000 -88.4390 19.9098 -5.8482 14.2983 -23.1596 -2.9444 -0.0000 -0.0000 21.8242 4.0128 14.4660 1.0040 -7.1250 0.0000 -0.0000 -21.2510 43.4047 0.8791 0.0000 -0.0000 0.0000 81.7735 -9.3416 21.1812 -14.2103 23.0345 -2.9099 0.0000 0.0000 10.8821 -9.0025 -7.1776 1.1340 7.1250 -0.0000 -0.0000 14.9867 -36.8664 3.0838
1.1999 15.5898 5.7556 4.1422 -14.5057 5.2937 0.0000 0.0000 0.0000 -25.5690 -10.8434 1.6485 0.6840 5.2876 14.7307 -0.0432 18.2712 -25.5023 0.0466 1.3936 3.8325 0.0000 0.0000 0.0000 8.4596 16.2733 -11.3505 -2.9842 -10.6694 31.1727 -0.6343 -12.9070 -24.7037 -0.0426 1.3326 -3.6645 -4.7632 -1.8685 -5.0492 -0.6399 -2.4937 -7.6512 1.9781 -1.0358 -4.9573 -3.4259 -7.7623 -9.0422 0.1259 -10.8029 29.0121 -0.7051 -5.3900 11.0468 0.0000 0.0000 0.0000 -88.4655 19.8320 -5.3704 14.4668 -23.3981 -3.0110 -0.0000 -0.0000 21.4095 4.0326 14.5460 1.0144 -7.1250 0.0000 -0.0000 -21.2627 43.4815 0.8372 0.0000 0.0000 0.0000 81.6902 -9.3996 20.4161 -13.8846 22.5695 -2.7837 0.0000 0.0000 11.5109 -9.1199 -7.1990 1.1525 7.1250 -0.0000 -0.0000 14.8946 -36.8947 3.0531
1.1850 15.5897 5.7634 4.0810 -14.5155 5.3106 0.0000 0.0000 0.0000 -25.4816 -10.9207 1.7318 0.6848 5.2909 14.7402 -0.0454 18.3581 -25.6069 0.0464 1.3908 3.8249 0.0000 0.0000 0.0000 8.5933 16.2665 -11.2980 -2.9814 -10.6648 31.1576 -0.6397 -12.8958 -24.7371 -0.0422 1.3253 -3.6443 -4.7539 -1.8950 -5.1120 -0.6343 -2.5260 -7.6687 1.9764 -1.0527 -4.9385 -3.5458 -7.8435 -9.0585 0.2975 -10.9486 29.0134 -0.6454 -5.4488 11.0736 0.0000 0.0000 0.0000 -88.4813 19.7404 -4.8470 14.6561 -23.6648 -3.0866 -0.0000 -0.0000 20.9585 4.0296 14.6455 1.0204 -7.1250 0.0000 -0.0000 -21.3013 43.5738 0.7878 0.0000 0.0000 0.0000 81.6132 -9.4542 19.6292 -13.5622 22.1054 -2.6611 0.0000 0.0000 12.1760 -9.2343 -7.2024 1.1677 7.1250 -0.0000 -0.0000 14.8012 -36.9051 3.0290
1.1703 15.5896 5.7714 4.0318 -14.5197 5.3248 0.0000 0.0000 0.0000 -25.4086 -11.0000 1.8229 0.6848 5.2906 14.7394 -0.0477 18.4451 -25.7104 0.0466 1.3930 3.8308 0.0000 0.0000 0.0000 8.7103 16.2315 -11.2562 -2.9797 -10.6620 31.1484 -0.6477 -12.8610 -24.7687 -0.0416 1.3157 -3.6178 -4.7525 -1.9237 -5.1768 -0.6325 -2.5611 -7.6809 1.9749 -1.0708 -4.9126 -3.6537 -7.9148 -9.0849 0.4674 -11.0814 29.0123 -0.5871 -5.5004 11.1006 0.0000 0.0000 0.0000 -88.4948 19.6412 -4.2959 14.8671 -23.9607 -3.1718 -0.0000 -0.0000 20.4913 4.0057 14.7512 1.0215 -7.1250 0.0000 -0.0000 -21.3603 43.6697 0.7370 0.0000 0.0000 0.0000 81.5346 -9.5083 18.8387 -13.2462 21.6469 -2.5434 0.0000 0.0000 12.8662 -9.3394 -7.1734 1.1765 7.1250 -0.0000 -0.0000 14.7084 -36.8833 3.0170
1.1556 15.5894 5.7794 3.9909 -14.5174 5.3379 0.0000 0.0000 0.0000 -25.3451 -11.0804 1.9190 0.6837 5.2867 14.7280 -0.0535 18.5383 -25.7937 0.0459 1.3829 3.8031 0.0000 0.0000 0.0000 8.8149 16.1740 -11.2260 -2.9791 -10.6612 31.1456 -0.6571 -12.8117 -24.7965 -0.0412 1.3095 -3.6009 -4.7593 -1.9567 -5.2380 -0.6296 -2.6017 -7.6918 1.9790 -1.0913 -4.8868 -3.7513 -7.9743 -9.1177 0.6295 -11.1965 29.0094 -0.5313 -5.5435 11.1268 0.0000 0.0000 0.0000 -88.5127 19.5391 -3.7323 15.0947 -24.2779 -3.2648 -0.0000 -0.0000 20.0229 3.9811 14.8385 1.0211 -7.1250 0.0000 -0.0000 -21.4135 43.7483 0.6953 0.0000 0.0000 0.0000 81.4487 -9.5643 18.0519 -12.9377 21.1959 -2.4307 0.0000 0.0000 13.5798 -9.4280 -7.1242 1.1798 7.1250 -0.0000 -0.0000 14.6252 -36.8407 3.0147
1.1410 15.5893 5.7870 3.9516 -14.5128 5.3549 0.0000 0.0000 0.0000 -25.2819 -11.1635 2.0119 0.6821 5.2806 14.7106 -0.0606 18.6347 -25.8706 0.0452 1.3716 3.7720 0.0000 0.0000 0.0000 8.9162 16.1174 -11.2048 -2.9793 -10.6614 31.1463 -0.6664 -12.7635 -24.8239 -0.0409 1.3055 -3.5899 -4.7710 -1.9913 -5.2952 -0.6213 -2.6446 -7.7051 1.9916 -1.1124 -4.8650 -3.8373 -8.0216 -9.1554 0.7752 -11.2911 29.0072 -0.4808 -5.5779 11.1521 0.0000 0.0000 0.0000 -88.5400 19.4378 -3.1606 15.3355 -24.6114 -3.3644 -0.0000 -0.0000 19.5585 3.9748 14.8880 1.0228 -7.1250 0.0000 -0.0000 -21.4372 43.7938 0.6708 0.0000 0.0000 0.0000 81.3554 -9.6211 17.2553 -12.6354 20.7507 -2.3225 0.0000 0.0000 14.3261 -9.4986 -7.0556 1.1774 7.1250 -0.0000 -0.0000 14.5527 -36.7778 3.0221
1.1265 15.5893 5.7945 3.9176 -14.5034 5.3724 0.0000 0.0000 0.0000 -25.2241 -11.2477 2.1036 0.6803 5.2737 14.6908 -0.0684 18.7296 -25.9400 0.0442 1.3564 3.7299 0.0000 0.0000 0.0000 9.0097 16.0518 -11.1895 -2.9798 -10.6622 31.1491 -0.6760 -12.7108 -24.8506 -0.0407 1.3022 -3.5807 -4.7868 -2.0295 -5.3557 -0.6110 -2.6918 -7.7147 2.0082 -1.1355 -4.8372 -3.9150 -8.0588 -9.1935 0.9089 -11.3683 28.9954 -0.4333 -5.6050 11.1722 0.0000 0.0000 0.0000 -88.5736 19.3272 -2.5965 15.5845 -24.9540 -3.4688 -0.0000 -0.0000 19.1140 3.9896 14.8936 1.0270 -7.1250 0.0000 -0.0000 -21.4264 43.8007 0.6666 0.0000 0.0000 0.0000 81.2576 -9.6726 16.4681 -12.3435 20.3178 -2.2201 0.0000 0.0000 15.0876 -9.5591 -6.9905 1.1742 7.1250 -0.0000 -0.0000 14.4895 -36.7178 3.0301
1.1119 15.5895 5.8007 3.8767 -14.4969 5.3970 0.0000 0.0000 0.0000 -25.1544 -11.3347 2.1825 0.6785 5.2669 14.6715 -0.0770 18.8257 -26.0053 0.0433 1.3428 3.6926 0.0000 0.0000 0.0000 9.1124 16.0192 -11.1760 -2.9803 -10.6630 31.1517 -0.6831 -12.6821 -24.8803 -0.0402 1.2940 -3.5581 -4.7994 -2.0638 -5.4059 -0.5948 -2.7343 -7.7312 2.0297 -1.1559 -4.8224 -3.9839 -8.0891 -9.2298 1.0216 -11.4311 28.9867 -0.3927 -5.6270 11.1907 0.0000 -0.0000 0.0000 -88.6097 19.2173 -2.0200 15.8358 -25.2976 -3.5755 -0.0000 -0.0000 18.6678 4.0452 14.8611 1.0391 -7.1250 0.0000 -0.0000 -21.3664 43.7765 0.6780 0.0000 -0.0000 0.0000 81.1611 -9.7279 15.6549 -12.0597 19.8942 -2.1226 0.0000 0.0000 15.8878 -9.5982 -6.9639 1.1746 7.1250 -0.0000 -0.0000 14.4519 -36.6940 3.0305
1.0975 15.5899 5.8065 3.8372 -14.4876 5.4235 0.0000 0.0000 0.0000 -25.0847 -11.4210 2.2552 0.6768 5.2605 14.6529 -0.0841 18.9145 -26.0729 0.0429 1.3372 3.6772 0.0000 0.0000 0.0000 9.2127 15.9887 -11.1652 -2.9809 -10.6640 31.1550 -0.6898 -12.6570 -24.9100 -0.0397 1.2859 -3.5358 -4.8102 -2.0968 -5.4565 -0.5798 -2.7753 -7.7458 2.0488 -1.1757 -4.8057 -4.0412 -8.1141 -9.2620 1.1216 -11.4840 28.9665 -0.3566 -5.6450 11.2021 0.0000 -0.0000 0.0000 -88.6420 19.0995 -1.4362 16.0954 -25.6498 -3.6872 -0.0000 -0.0000 18.2243 4.1129 14.8082 1.0529 -7.1250 0.0000 -0.0000 -21.2885 43.7345 0.6984 0.0000 -0.0000 0.0000 81.0699 -9.7828 14.8461 -11.7911 19.4906 -2.0320 0.0000 0.0000 16.6963 -9.6275 -6.9706 1.1794 7.1250 -0.0000 -0.0000 14.4291 -36.7023 3.0224
1.0833 15.5903 5.8121 3.7978 -14.4782 5.4499 0.0000 0.0000 0.0000 -25.0149 -11.5069 2.3240 0.6755 5.2555 14.6388 -0.0883 18.9939 -26.1517 0.0434 1.3442 3.6963 0.0000 0.0000 0.0000 9.3122 15.9562 -11.1547 -2.9812 -10.6646 31.1568 -0.6970 -12.6273 -24.9396 -0.0389 1.2736 -3.5018 -4.8155 -2.1268 -5.5062 -0.5678 -2.8122 -7.7575 2.0619 -1.1940 -4.7870 -4.0846 -8.1352 -9.2913 1.2095 -11.5296 28.9365 -0.3255 -5.6597 11.2071 -0.0000 -0.0000 0.0000 -88.6675 18.9764 -0.8406 16.3659 -26.0142 -3.8050 -0.0000 -0.0000 17.7765 4.1820 14.7608 1.0673 -7.1250 0.0000 -0.0000 -21.2116 43.6979 0.7158 -0.0000 -0.0000 0.0000 80.9865 -9.8428 14.0605 -11.5436 19.1167 -1.9502 0.0000 0.0000 17.4871 -9.6505 -7.0085 1.1886 7.1250 -0.0000 -0.0000 14.4180 -36.7410 3.0059
1.0693 15.5907 5.8172 3.7582 -14.4666 5.4775 0.0000 0.0000 0.0000 -24.9452 -11.5952 2.3881 0.6746 5.2521 14.6290 -0.0922 19.0711 -26.2306 0.0439 1.3528 3.7202 0.0000 0.0000 0.0000 9.4101 15.9158 -11.1490 -2.9814 -10.6648 31.1576 -0.7040 -12.5941 -24.9642 -0.0383 1.2630 -3.4728 -4.8169 -2.1544 -5.5527 -0.5570 -2.8463 -7.7678 2.0716 -1.2110 -4.7689 -4.1197 -8.1540 -9.3152 1.2880 -11.5698 28.8946 -0.2978 -5.6724 11.2051 -0.0000 -0.0000 0.0000 -88.6903 18.8504 -0.2376 16.6477 -26.3910 -3.9295 -0.0000 -0.0000 17.3220 4.2482 14.7233 1.0815 -7.1250 0.0000 -0.0000 -21.1407 43.6701 0.7284 -0.0000 -0.0000 0.0000 80.9082 -9.9063 13.2961 -11.3147 18.7691 -1.8759 0.0000 0.0000 18.2593 -9.6708 -7.0667 1.2010 7.1250 -0.0000 -0.0000 14.4132 -36.7993 2.9837
